<?xml version="1.0" encoding="UTF-8" standalone="no"?>
<svg
   xmlns:dc="http://purl.org/dc/elements/1.1/"
   xmlns:cc="http://creativecommons.org/ns#"
   xmlns:rdf="http://www.w3.org/1999/02/22-rdf-syntax-ns#"
   xmlns:svg="http://www.w3.org/2000/svg"
   xmlns="http://www.w3.org/2000/svg"
   viewBox="0 0 5528.605 1104.7631"
   height="1104.7631"
   width="5528.605"
   id="svg4572"
   version="1.1">
  <metadata
     id="metadata4578">
    <rdf:RDF>
      <cc:Work
         rdf:about="">
        <dc:format>image/svg+xml</dc:format>
        <dc:type
           rdf:resource="http://purl.org/dc/dcmitype/StillImage" />
        <dc:title></dc:title>
      </cc:Work>
    </rdf:RDF>
  </metadata>
  <defs
     id="defs4576">
    <clipPath
       id="clipPath4611"
       clipPathUnits="userSpaceOnUse">
      <rect
         y="1036.8156"
         x="1533.9388"
         height="993.07538"
         width="1280.5211"
         id="rect4613"
         style="fill:#00a400;fill-opacity:0.13636367;stroke-width:1" />
    </clipPath>
  </defs>
  <g
     transform="translate(-58.323884,-58.284987)"
     style="display:inline"
     id="layer1">
    <path
       id="path4582"
       d="m 3088.5781,58.285156 c -4.4025,0.02874 -4.3141,-0.124252 -15.0996,26.486328 -3.0424,7.50658 -4.4082,12.742758 -5.4804,20.999996 -2.0468,15.76065 -1.963,15.49758 -5.3204,16.66797 -3.9346,1.37163 -4.943,3.50845 -4.957,10.51563 -0.01,3.19866 -1.3564,15.26511 -3,26.81445 -1.6435,11.54934 -2.9961,25.27434 -2.9961,30.5 -0.01,11.6948 -1.5511,25.67864 -3.6113,32.76563 -0.8519,2.93042 -3.9774,10.95941 -6.9453,17.84179 -3.3864,7.85269 -6.2078,16.38482 -7.5762,22.90625 -1.1993,5.71562 -2.511,10.92589 -2.9141,11.57813 -0.5152,0.83353 -5.8891,1.21807 -18.0879,1.29687 -16.855,0.10887 -17.5016,0.0375 -22.3574,-2.49023 -3.7108,-1.93175 -5.8506,-3.99435 -8.3027,-8 -1.8172,-2.96846 -3.5537,-6.60148 -3.8594,-8.07227 -0.3643,-1.75253 -1.5961,-3.10331 -3.5723,-3.92187 -3.8566,-1.59745 -13.2841,-8.54 -22.4296,-16.51563 -8.2257,-7.17357 -9.6593,-7.99065 -24.5293,-13.96679 -7.1474,-2.8725 -15.7071,-7.48881 -24.6309,-13.28711 -7.5217,-4.88728 -16.6008,-10.6672 -20.1758,-12.84375 -11.8507,-7.21506 -26.7541,-12.07894 -33.6074,-10.9668 -5.1873,0.84178 -5.0145,-0.95766 0.5742,-5.98242 5.8785,-5.28523 12.8233,-14.0171 15.7949,-19.85938 1.1244,-2.21062 3.0665,-9.15259 4.3164,-15.42578 3.0399,-15.25761 3.0209,-15.23933 16.9161,-14.85547 6.6545,0.18384 11.3013,-0.10681 11.9453,-0.74609 1.6542,-1.64202 3.2087,-11.8926 3.3925,-22.36133 l 0.168,-9.568358 -4.1211,-1.4375 c -5.4298,-1.8936 -9.8736,-0.211967 -12.1699,4.603518 -3.0009,6.29294 -10.8912,5.50986 -12.7832,-1.269534 -0.9982,-3.57703 -1.4229,-3.947768 -4.8574,-4.236328 -2.5,-0.21004 -4.3959,0.254919 -5.6465,1.386719 -1.6411,1.48521 -3.2596,1.612498 -12.6074,0.986328 -12.6077,-0.84454 -15.7765,-2.173269 -17.9102,-7.505859 l -1.5488,-3.871094 -14.6777,-0.398438 c -14.2865,-0.38811 -14.8643,-0.490067 -21.6778,-3.804687 -3.85,-1.87294 -8.7839,-3.646506 -10.9648,-3.941406 -3.5731,-0.48314 -4.2681,-1.079097 -7.0352,-6.035157 -3.3119,-5.93191 -5.158,-6.72158 -4.6621,-1.99414 0.6368,6.07043 -1.9802,8.937108 -4.9219,5.392578 -0.731,-0.88081 -3.7577,-3.24331 -6.7265,-5.25 -16.6411,-11.24819 -19.3138,-12.115913 -23.7344,-7.695313 -4.7013,4.70133 -2.9879,7.270372 4.8867,7.326172 5.0251,0.03563 11.6582,8.411903 11.6582,14.720703 0,6.6854 -6.3723,13.90201 -13.7265,15.544926 -2.0752,0.46358 -10.7485,1.54553 -19.2735,2.40625 -24.7426,2.4981 -32.8684,4.73396 -39.8359,10.95898 -5.0027,4.46955 -6.6458,14.10736 -3.6328,21.31836 2.1656,5.18316 1.3995,6.27148 -4.418,6.27148 -5.4253,0 -8.1133,0.70937 -8.1133,2.14258 0,0.51109 -2.3123,3.94532 -5.1387,7.63282 -5.7146,7.45585 -8.2178,12.61539 -9.2226,19.00781 -0.8339,5.30496 0.4038,7.77491 4.2832,8.55078 4.7739,0.95478 8.0043,10.07426 5.1601,14.56641 -1.118,1.76591 -20.1954,3.45264 -31.582,2.79296 -12.9441,-0.74991 -17.0042,-3.79343 -24.2637,-18.19336 -4.0314,-7.99677 -9.8802,-14.44454 -16.2441,-17.9082 -4.7056,-2.56109 -5.9211,-2.79512 -12.3555,-2.36914 -6.1967,0.41024 -8.651,1.23189 -18.6367,6.23047 -6.325,3.16614 -13.8625,7.52344 -16.75,9.68359 -4.9252,3.6846 -5.25,4.19511 -5.25,8.27149 0,5.80441 -1.5122,6.9197 -8.248,6.07812 -6.8594,-0.85703 -7.5711,-0.003 -7.9532,9.55664 l -0.2988,7.45703 -9.75,0.28516 -9.7519,0.28711 -2.4121,4.75781 c -1.3264,2.61737 -4.5223,7.10577 -7.1016,9.97461 -5.2234,5.80965 -5.2954,7.89634 -0.291,8.37695 l 3.3066,0.31836 0.2949,7.23438 c 0.4486,11.05608 0.2135,11.26562 -12.6289,11.26562 -6.9641,0 -11.1844,0.41691 -11.9511,1.1836 -0.8649,0.86485 -1.013,5.12394 -0.5528,15.75781 0.5537,12.79144 0.4288,14.73839 -1.0136,15.93555 -1.4192,1.17779 -2.1132,1.00574 -5.086,-1.26172 -1.8932,-1.44403 -6.0409,-5.56706 -9.2168,-9.16211 -4.0395,-4.57261 -6.3735,-6.44999 -7.7715,-6.24609 -2.9934,0.43663 -11.1095,11.16705 -14.1269,18.67773 -2.3346,5.81097 -2.713,8.37581 -3.1133,21.11523 -0.7326,23.31792 -3.2469,30.95971 -15.0195,45.64063 -17.653,22.01396 -30.7004,28.62276 -61.5586,31.18555 -13.372,1.11055 -18.5679,3.31856 -23.4121,9.94531 -5.3101,7.26389 -8.9149,10.50413 -14.8438,13.34765 -3.3,1.58272 -6.5348,2.87848 -7.1894,2.87891 -0.6547,4.3e-4 -4.0579,2.19863 -7.5625,4.88477 -10.2481,7.85473 -13.8985,9.3243 -25.2481,10.16406 -5.5,0.40694 -11.3617,1.17781 -13.0273,1.71289 -10.1129,3.24869 -21.1519,11.58335 -31.5293,23.80664 -4.0006,4.71215 -9.62,10.67467 -12.4883,13.25 -5.8469,5.24965 -10.0688,12.79202 -13.3711,23.89258 -1.1797,3.96536 -2.6008,7.49145 -3.1582,7.83594 -1.8319,1.13215 -3.8532,-1.65916 -5.5293,-7.63282 -1.556,-5.54542 -3.7514,-8.89119 -5.0078,-7.63476 -1.4839,1.48392 -2.539,17.79855 -2.0527,31.72265 0.7572,21.6839 -0.3815,34.18353 -3.711,40.75391 l -2.623,5.17578 1.9961,5.33399 c 1.0976,2.93364 3.2666,7.337 4.8203,9.78515 2.552,4.02121 3.9892,5.07713 12.1816,8.95313 1.1489,0.54355 1.5679,2.9673 1.7871,10.35351 0.2799,9.43197 0.3396,9.64453 2.6856,9.64453 3.1645,0 6.8239,1.43717 8.873,3.48633 1.2921,1.29209 1.6543,3.60636 1.6543,10.54883 0,7.94647 -0.2183,9.01044 -2.0527,9.99219 -3.8524,2.06171 -10.593,-2.52431 -22.459,-15.27735 -2.1352,-2.29477 -6.3882,-3.31205 -8.3926,-2.00781 -3.1272,2.03486 -1.4493,6.19129 5.6992,14.11914 3.7878,4.20066 9.5346,9.78448 12.7715,12.40821 7.1882,5.82647 8.3531,7.80861 8.3985,14.29101 0.025,3.63846 0.5962,5.66298 2.0293,7.20117 1.8067,1.93928 7.5974,4.21833 10.7558,4.23242 0.8959,0.004 1.25,2.2827 1.25,8.04493 0,11.96544 3.1371,16.96308 14.8379,23.63867 7.8587,4.48355 8.3033,5.10008 8.1426,11.2832 -0.079,3.04634 -0.1075,6.28694 -0.062,7.20313 0.045,0.91619 3.6695,5.8042 8.0527,10.86133 7.6757,8.85577 12.0293,16.83467 12.0293,22.04296 0,4.67895 3.7079,10.04011 14.4961,20.96485 6.265,6.34422 11.8659,12.78731 12.4473,14.3164 0.5813,1.52908 1.0723,10.06315 1.0918,18.96485 0.027,12.14431 0.3925,16.80967 1.4648,18.68554 1.9126,3.34574 1.9574,17.81314 0.062,20.3125 -0.7561,0.99731 -4.2298,3.24731 -7.7187,5 l -6.3438,3.1875 -0.2383,8.5 c -0.1959,6.97666 0.087,8.88239 1.5703,10.63672 2.7354,3.23396 9.6147,6.36328 13.9903,6.36328 4.0441,0 4.9149,0.4738 17.6777,9.625 9.2545,6.63569 13.0353,7.375 37.7617,7.375 18.3162,0 20.4901,-0.18515 24.4004,-2.07812 4.0468,-1.95903 10.3219,-8.69892 14.168,-15.21484 2.7773,-4.70508 19.3839,-17.24248 27.8789,-21.04883 12.2372,-5.4831 19.5872,-8.30118 23.8535,-9.14453 2.1662,-0.4282 16.3125,-0.88647 31.4375,-1.01954 27.1211,-0.2386 27.6304,-0.28301 36.9707,-3.12695 l 9.4707,-2.88281 5.8399,-10.47852 c 3.2109,-5.76331 6.5551,-11.27174 7.4316,-12.24023 6.1039,-6.7447 40.7196,-22.31959 54.7871,-24.65039 18.834,-3.12056 21.8049,-4.09082 25,-8.16406 1.65,-2.10345 4.125,-4.26923 5.5,-4.8125 1.375,-0.54327 8.125,-1.20883 15,-1.48047 14.5314,-0.57415 20.8321,-2.2546 36.8809,-9.83594 34.7007,-16.39236 55.4215,-21.4739 70.7011,-17.33789 3.6195,0.97975 7.8948,2.88564 9.5,4.23633 2.4843,2.09035 2.918,3.17642 2.918,7.29492 0,4.03607 0.4369,5.18131 2.6348,6.91016 2.3734,1.86695 3.9908,2.07421 16.291,2.07421 9.6301,0 15.4119,0.48643 19.6152,1.65235 3.2781,0.90926 8.7586,1.93018 12.1797,2.26953 3.4212,0.33936 6.6559,1.05878 7.1875,1.59766 0.5317,0.53889 1.1071,3.00546 1.2793,5.48046 l 0.3125,4.5 5.6074,0.60157 c 6.7393,0.72464 7.8989,1.34382 7.8789,4.20703 -0.021,3.02782 -0.8419,3.98192 -5.7675,6.7168 -4.6849,2.60125 -6.4092,6.21191 -4.0801,8.54101 0.7684,0.76844 3.8538,1.86239 6.8555,2.43164 10.0762,1.91091 15.998,10.04212 20.4765,28.11524 3.9548,15.95929 6.8482,22.06295 13.2246,27.89062 5.279,4.82471 7.3633,5.6778 10.7227,4.38867 1.2413,-0.4763 1.582,-2.16896 1.582,-7.86133 0,-7.18093 0.043,-7.29805 4.2539,-11.64257 2.3397,-2.41386 7.4236,-7.08868 11.2969,-10.38868 9.9512,-8.47828 27.8737,-30.48236 32.8887,-40.3789 5.0971,-10.05864 6.4821,-6.20531 5.8906,16.3789 -0.6206,23.69488 -3.4288,30.06358 -20.5449,46.57227 -14.9043,14.37541 -15.1314,15.55629 -2.9063,15.1543 9.1795,-0.30183 12.8989,-1.70166 15.961,-6.00196 2.2549,-3.16677 4.2098,-12.61096 3.9257,-18.96289 -0.2163,-4.83652 0.5903,-5.98972 4.7657,-6.80664 5.5308,-1.08213 6.5323,0.77171 7.6093,14.09375 1.1945,14.77492 0.7212,17.51778 -3.7714,21.88086 -3.7378,3.63018 -5.2441,8.94414 -3.9727,14.00977 0.6114,2.43606 0.9689,2.55842 7.373,2.51562 6.114,-0.0408 7.4138,-0.44723 14.1836,-4.43359 4.0992,-2.41374 7.8261,-4.15829 8.2813,-3.87695 0.4553,0.28134 0.5522,1.98274 0.2148,3.78125 -0.7951,4.23868 2.363,7.82364 8.3633,9.49218 2.3717,0.65951 6.0251,2.74678 8.1192,4.63867 5.6637,5.11676 6.4469,9.15943 5.8574,30.23633 -0.5516,19.7229 -0.1825,21.69804 5.2109,27.90039 4.7918,5.5104 8.0939,6.92216 18,7.68946 7.535,0.5837 9.6827,1.24178 18.9082,5.80078 9.6583,4.7729 11.1465,5.2046 20.6875,6.0039 11.6758,0.9781 16.1064,2.48064 19.6133,6.64844 4.0047,4.7592 5.6547,5.16406 21.0605,5.16406 h 14.3985 l 4.166,-3.84765 4.166,-3.84571 v -7.99804 c 0,-6.6624 0.3277,-8.29453 1.9532,-9.76563 1.8936,-1.7136 2.0422,-1.62298 5,3.04102 4.1575,6.5547 4.125,14.41601 -0.059,14.41601 -1.0411,0 -1.8926,0.44248 -1.8926,0.98438 0,1.281 11.118,10.01287 12.75,10.01367 0.8822,4e-4 1.25,-2.07896 1.25,-7.06836 0,-6.6659 0.1214,-7.0513 2.1484,-6.75 3.2569,0.4841 6.0715,5.05761 6.6192,10.75781 0.4331,4.5071 0.7869,5.15355 3.1093,5.65625 1.4416,0.31205 5.3215,1.38342 8.6211,2.38086 v 0 c 3.2995,0.99738 6.995,1.86194 8.2129,1.91993 2.5707,0.1225 4.2851,-2.52173 4.2851,-6.60743 0,-3.9798 2.5835,-7.28711 5.6895,-7.28711 1.4161,0 6.4531,-2.20815 11.1933,-4.90625 13.311,-7.5762 24.9431,-10.09375 46.6895,-10.09375 15.6573,-10e-4 21.8674,-1.36551 26.7676,-5.88281 6.1083,-5.6311 9.6137,-16.91088 10.291,-33.11719 0.2644,-6.325 0.7058,-12.57673 0.9805,-13.89257 0.2746,-1.31584 5.1852,-7.07503 10.914,-12.79688 8.0845,-8.07468 11.1288,-11.90388 13.5977,-17.10742 1.7495,-3.68731 6.9134,-11.73896 11.4765,-17.89258 9.5264,-12.84691 11.3395,-16.12566 15.543,-28.11133 6.2708,-17.88047 11.802,-25.15642 27.3398,-35.96875 21.7153,-15.11105 22.7464,-16.86294 26.0293,-44.23047 2.2086,-18.41208 3.7018,-24.34783 8.9434,-35.56445 2.4729,-5.29184 6.4914,-15.76784 8.9316,-23.2793 5.9204,-18.2244 7.329,-30.68671 5.7637,-51 -0.6211,-8.06102 -1.088,-21.46811 -1.039,-29.79296 0.049,-8.32484 -0.2008,-18.89984 -0.5528,-23.5 -0.352,-4.60015 -0.2509,-9.71329 0.2227,-11.36329 0.7448,-2.59512 1.4452,-3.08077 5.1992,-3.58984 5.0894,-0.69015 7.5297,-3.19589 9.0098,-9.25586 0.5582,-2.28544 1.7267,-6.27408 2.5976,-8.86328 0.8711,-2.5892 1.2938,-5.1767 0.9395,-5.75 -0.3543,-0.5733 -2.531,-1.02611 -4.836,-1.00781 -4.6492,0.0369 -8.6831,2.64415 -8.705,5.62695 -0.046,6.18285 -2.3489,8.05043 -7.3497,5.96094 -4.6649,-1.9491 -11.4881,-10.14572 -21.3281,-25.6211 -4.7212,-7.425 -10.6586,-16.12225 -13.1953,-19.32617 -2.5366,-3.20391 -6.293,-7.92891 -8.3477,-10.5 -6.4562,-8.07856 -9.7656,-22.36871 -9.7656,-42.18164 0,-11.76638 -0.9501,-14.99219 -4.416,-14.99219 -3.4219,0 -3.8535,1.13617 -3.7441,9.86133 0.1704,13.59412 -2.7422,13.67074 -7.7637,0.20508 -3.3257,-8.91792 -5.6423,-11.83171 -8.5274,-10.72461 -0.7124,0.27344 -1.5951,2.09335 -1.9609,4.04297 -0.8812,4.69733 -2.578,5.61829 -2.623,1.42383 -0.087,-8.07924 -7.3854,-28.2295 -16.2832,-44.95117 -2.4462,-4.59723 -6.3672,-12.94037 -8.711,-18.54102 -5.9697,-14.26491 -10.6878,-19.90855 -22.4219,-26.81445 -10.1385,-5.96683 -12.5488,-8.38748 -12.5488,-12.60352 0,-3.38658 -1.4562,-4.49602 -6.789,-5.17383 -7.999,-1.01668 -21.8418,-14.02693 -27.543,-25.88671 -3.1177,-6.48542 -4.668,-17.1728 -4.668,-32.1875 0,-12.18666 -1.5215,-26.8895 -3.0859,-29.8125 -0.541,-1.01095 -1.6412,-1.8379 -2.4453,-1.8379 -2.2492,0 -9.4162,-6.94388 -10.9453,-10.60351 -1.8139,-4.3414 -3.3353,-14.98019 -4.4551,-31.16602 -0.8078,-11.67642 -1.246,-13.83726 -3.6446,-18 -1.499,-2.60185 -3.9886,-6.99748 -5.5332,-9.76757 -1.5447,-2.77009 -4.3507,-6.82008 -6.2343,-9 l -3.4239,-3.9629 -7.3652,0.14844 c -4.0511,0.0826 -10.1408,0.30763 -13.5312,0.5 -3.3905,0.19238 -6.4642,0.0522 -6.8301,-0.3125 -0.3659,-0.36468 -1.0516,-7.11468 -1.5235,-15 -0.9936,-16.60364 -1.2313,-17.55367 -9.1933,-36.68164 -5.8235,-13.99046 -5.9811,-14.60668 -5.5039,-21.5293 0.2702,-3.91942 0.82,-8.137496 1.2207,-9.374996 0.7043,-2.1756 0.5153,-2.25 -5.7031,-2.25 h -6.4317 l -1.1484,-10.984375 c -1.7001,-16.25926 -7.113,-26.049353 -14.377,-26.001953 z m -371.5976,3.060547 c -1.5589,0.07497 -3.5057,0.722595 -5.4727,1.921875 -4.072,2.48268 -13.1461,2.676326 -20.6719,0.441406 -5.9547,-1.76837 -10.0713,-1.235331 -12.6757,1.642578 -1.711,1.890631 -1.7017,2.0745 0.2363,4.69336 1.1093,1.49909 3.187,3.300203 4.6172,4.001953 1.4301,0.70176 4.296,3.06426 6.3672,5.25 3.3388,3.52349 4.2932,3.974609 8.4199,3.974609 3.2933,0 5.7127,-0.719271 8.2734,-2.457031 1.9905,-1.35076 5.4104,-2.939277 7.6016,-3.529297 2.1911,-0.59001 4.6763,-2.059025 5.5215,-3.265625 1.5496,-2.21247 2.0517,-8.243898 0.9296,-11.167969 -0.4162,-1.08467 -1.5875,-1.580826 -3.1464,-1.505859 z m 162.7988,79.134767 c -1.2376,0.0546 -2.2954,1.69456 -1.709,3.22265 0.3307,0.86198 1.2905,1.56836 2.1328,1.56836 1.7476,0 2.0917,-3.53597 0.4434,-4.55468 -0.2867,-0.1772 -0.5816,-0.24892 -0.8672,-0.23633 z m 14.2363,1.91797 c -1.6235,-0.0562 -2.4571,0.53725 -3.959,2.2832 -1.7971,2.08934 -2.3222,3.89773 -2.3222,7.99024 0,5.66719 0.9237,7.09452 6.5019,10.04687 1.6487,0.87263 4.1231,1.46541 5.4981,1.31836 3.3895,-0.3625 4.0442,-5.51004 1.0468,-8.22266 -2.4706,-2.23593 -2.6306,-5.24359 -0.4101,-7.69726 2.1802,-2.40904 0.4476,-4.55242 -4.416,-5.46485 -0.7709,-0.14462 -1.3983,-0.23516 -1.9395,-0.2539 z m 95.8653,90.87304 c -3.781,0 -13.5698,5.07991 -13.9707,7.25 -0.4655,2.51979 1.4483,2.2099 9.0527,-1.45898 7.4794,-3.60853 9.3339,-5.79102 4.918,-5.79102 z m 67.6406,239.38672 v 144.20118 c 0,3.53771 0.3086,6.46036 0.9238,8.76757 0.6153,2.30721 1.6157,4.15279 3,5.53711 1.3843,1.38433 3.2299,2.4614 5.5371,3.23047 2.3072,0.61526 5.1513,1.15379 8.5352,1.61524 l -2.9981,17.99609 c -13.228,-0.30763 -22.6111,-3.15362 -28.1484,-8.53711 -5.5373,-5.38349 -8.3067,-13.76621 -8.3067,-25.14844 v -143.9707 z m 52.7051,9.23047 c 3.8453,0 7.0765,1.30704 9.6914,3.92188 2.7686,2.46102 4.1523,5.8436 4.1523,10.15039 0,4.30679 -1.3837,7.76797 -4.1523,10.38281 -2.6149,2.46102 -5.8461,3.69141 -9.6914,3.69141 -3.8454,0 -7.1513,-1.23039 -9.92,-3.69141 -2.6148,-2.61484 -3.9218,-6.07602 -3.9218,-10.38281 0,-4.30679 1.307,-7.68937 3.9218,-10.15039 2.7687,-2.61484 6.0746,-3.92188 9.92,-3.92188 z m -712.6954,9.91992 h 20.5332 c 5.5373,11.53605 10.8441,23.22665 15.92,35.07032 5.0758,11.68985 10.1526,23.99369 15.2285,36.91406 5.2297,12.92036 10.5364,26.60985 15.9199,41.06836 5.3835,14.30469 11.1502,29.91836 17.3027,46.83789 h -24.455 c -2.6149,-6.92163 -5.0756,-13.69069 -7.3828,-20.30469 -2.3073,-6.76781 -4.6914,-13.61158 -7.1524,-20.5332 h -72.4473 l -14.5351,40.83789 h -23.3027 c 6.1525,-16.91953 11.9192,-32.5332 17.3027,-46.83789 5.3835,-14.45851 10.6136,-28.148 15.6894,-41.06836 5.2297,-12.92037 10.3832,-25.22421 15.459,-36.91406 5.0759,-11.84367 10.3826,-23.53427 15.9199,-35.07032 z m 356.6973,2.76953 v 37.14454 h 45.4531 v 17.99609 h -45.4531 v 55.37305 c 0,5.99874 0.4619,10.99888 1.3848,14.99804 0.9229,3.84535 2.3066,6.92131 4.1523,9.22852 1.8458,2.15339 4.1532,3.69235 6.9219,4.61523 2.7686,0.92289 5.9999,1.38282 9.6914,1.38282 6.4602,0 11.6117,-0.69185 15.457,-2.07618 3.9992,-1.53813 6.7685,-2.61521 8.3067,-3.23046 l 4.1523,17.76562 c -2.1534,1.0767 -5.9212,2.38569 -11.3047,3.92383 -5.3835,1.69195 -11.5354,2.53711 -18.457,2.53711 -8.1521,0 -14.9212,-1.00042 -20.3047,-3 -5.2297,-2.1534 -9.4593,-5.30601 -12.6894,-9.45899 -3.2301,-4.15297 -5.5376,-9.22977 -6.9219,-15.22851 -1.2305,-6.15256 -1.8457,-13.22629 -1.8457,-21.22461 V 498.26953 Z m -347.0078,22.83985 c -5.3835,11.53604 -10.535,23.61187 -15.457,36.22461 -4.7683,12.45892 -9.5365,25.37796 -14.3047,38.75976 h 59.5254 c -4.9221,-13.3818 -9.8436,-26.30084 -14.7657,-38.75976 -4.7682,-12.61274 -9.7683,-24.68857 -14.998,-36.22461 z m 260.6465,11.30664 c 3.3839,0 6.7684,0.22996 10.1523,0.69141 3.3839,0.30762 6.5365,0.76951 9.459,1.38476 2.9225,0.46144 5.4599,0.99998 7.6133,1.61524 2.3072,0.61525 4.0761,1.15379 5.3066,1.61523 l -3.9218,18.45703 c -2.3073,-1.23051 -5.9217,-2.46089 -10.8438,-3.6914 -4.922,-1.38433 -10.844,-2.07618 -17.7656,-2.07618 -5.9988,0 -11.2289,1.23039 -15.6895,3.69141 -4.4606,2.30721 -6.6914,5.99836 -6.6914,11.07422 0,2.61483 0.4619,4.92229 1.3848,6.92187 1.0767,1.99958 2.6156,3.84516 4.6152,5.53711 2.1534,1.53814 4.7675,2.99849 7.8438,4.38281 3.0763,1.38433 6.7674,2.84663 11.0742,4.38477 5.6911,2.15339 10.7679,4.30754 15.2285,6.46094 4.4606,1.99958 8.2284,4.38369 11.3047,7.15234 3.2301,2.76865 5.6909,6.15123 7.3828,10.15039 1.692,3.84535 2.5391,8.61358 2.5391,14.30469 0,11.0746 -4.1531,19.45732 -12.459,25.14844 -8.1522,5.69111 -19.8428,8.53711 -35.0703,8.53711 -10.6132,0 -18.9193,-0.92181 -24.918,-2.76758 -5.9987,-1.69195 -10.0751,-3.00095 -12.2285,-3.92383 l 3.9238,-18.45703 c 2.461,0.92288 6.3822,2.30658 11.7656,4.15234 5.3835,1.84577 12.5359,2.76953 21.4571,2.76953 8.7674,0 15.2279,-1.15372 19.3808,-3.46093 4.3068,-2.30721 6.461,-5.99836 6.461,-11.07422 0,-5.22967 -2.0775,-9.38271 -6.2305,-12.45899 -4.153,-3.07627 -10.9967,-6.53746 -20.5332,-10.38281 -4.6144,-1.84577 -9.076,-3.69134 -13.3828,-5.53711 -4.153,-1.99958 -7.7675,-4.30704 -10.8438,-6.92187 -3.0762,-2.61484 -5.537,-5.76745 -7.3828,-9.45899 -1.8457,-3.69153 -2.7695,-8.22979 -2.7695,-13.61328 0,-10.61316 3.9231,-18.99588 11.7676,-25.14844 7.8445,-6.30637 18.5347,-9.45898 32.0703,-9.45898 z m 287.1035,0 c 8.6136,0 15.8426,1.15373 21.6875,3.46094 5.9987,2.15339 10.767,5.30601 14.3047,9.45898 3.6915,3.99916 6.3056,8.84404 7.8437,14.53516 1.5382,5.5373 2.3086,11.68922 2.3086,18.45703 v 74.98437 c -1.8457,0.30763 -4.4618,0.76951 -7.8457,1.38477 -3.2301,0.46144 -6.9212,0.92332 -11.0742,1.38476 -4.153,0.46145 -8.6912,0.84667 -13.6133,1.1543 -4.7682,0.46144 -9.5364,0.69141 -14.3047,0.69141 -6.7678,0 -12.9963,-0.69185 -18.6875,-2.07617 -5.6911,-1.38433 -10.6126,-3.53848 -14.7656,-6.46094 -4.153,-3.07628 -7.3842,-7.076 -9.6914,-11.99805 -2.3072,-4.92204 -3.4609,-10.844 -3.4609,-17.76562 0,-6.614 1.309,-12.30404 3.9238,-17.07227 2.7686,-4.76823 6.4598,-8.61464 11.0742,-11.53711 4.6144,-2.92246 9.9979,-5.07466 16.1504,-6.45898 6.1526,-1.38433 12.6131,-2.07617 19.3809,-2.07617 2.1534,0 4.3822,0.15331 6.6894,0.46093 2.3072,0.15382 4.4614,0.46044 6.461,0.92188 2.1534,0.30763 3.9989,0.6162 5.5371,0.92383 1.5381,0.30762 2.6152,0.53759 3.2304,0.6914 v -5.99804 c 0,-3.53772 -0.3852,-6.99891 -1.1543,-10.38282 -0.769,-3.53772 -2.1527,-6.61368 -4.1523,-9.22851 -1.9996,-2.76865 -4.7689,-4.9228 -8.3066,-6.46094 -3.384,-1.69195 -7.8436,-2.53711 -13.3809,-2.53711 -7.0754,0 -13.306,0.53854 -18.6895,1.61524 -5.2296,0.92288 -9.1507,1.9233 -11.7656,3 l -2.539,-17.76563 c 2.7686,-1.23051 7.3835,-2.38424 13.8437,-3.46094 6.4602,-1.23051 13.4592,-1.8457 20.9961,-1.8457 z m 241.9863,0 c 8.6136,0 15.8426,1.15373 21.6875,3.46094 5.9988,2.15339 10.767,5.30601 14.3047,9.45898 3.6916,3.99916 6.3056,8.84404 7.8438,14.53516 1.5381,5.5373 2.3086,11.68922 2.3086,18.45703 v 74.98437 c -1.8458,0.30763 -4.4618,0.76951 -7.8457,1.38477 -3.2301,0.46144 -6.9213,0.92332 -11.0743,1.38476 -4.1529,0.46145 -8.6892,0.84667 -13.6113,1.1543 -4.7682,0.46144 -9.5364,0.69141 -14.3047,0.69141 -6.7678,0 -12.9983,-0.69185 -18.6894,-2.07617 -5.6911,-1.38433 -10.6127,-3.53848 -14.7657,-6.46094 -4.1529,-3.07628 -7.3842,-7.076 -9.6914,-11.99805 -2.3072,-4.92204 -3.4609,-10.844 -3.4609,-17.76562 0,-6.614 1.309,-12.30404 3.9238,-17.07227 2.7687,-4.76823 6.4598,-8.61464 11.0742,-11.53711 4.6145,-2.92246 9.9979,-5.07466 16.1504,-6.45898 6.1526,-1.38433 12.6131,-2.07617 19.3809,-2.07617 2.1534,0 4.3822,0.15331 6.6895,0.46093 2.3072,0.15382 4.4613,0.46044 6.4609,0.92188 2.1534,0.30763 3.999,0.6162 5.5371,0.92383 1.5381,0.30762 2.6152,0.53759 3.2305,0.6914 v -5.99804 c 0,-3.53772 -0.3853,-6.99891 -1.1543,-10.38282 -0.7691,-3.53772 -2.1528,-6.61368 -4.1524,-9.22851 -1.9996,-2.76865 -4.7689,-4.9228 -8.3066,-6.46094 -3.3839,-1.69195 -7.8436,-2.53711 -13.3809,-2.53711 -7.0754,0 -13.3059,0.53854 -18.6894,1.61524 -5.2297,0.92288 -9.1508,1.9233 -11.7657,3 l -2.539,-17.76563 c 2.7686,-1.23051 7.3836,-2.38424 13.8437,-3.46094 6.4602,-1.23051 13.4593,-1.8457 20.9961,-1.8457 z m -325.6738,0.46094 c 1.8458,0 3.9233,0.15331 6.2305,0.46093 2.461,0.15382 4.8451,0.46239 7.1523,0.92383 2.3072,0.30763 4.3828,0.6909 6.2285,1.15235 1.9996,0.30762 3.4619,0.6162 4.3848,0.92382 l -3.6914,18.6875 c -1.692,-0.61525 -4.538,-1.3071 -8.5371,-2.07617 -3.8454,-0.92288 -8.8455,-1.38476 -14.9981,-1.38476 -3.9991,0 -7.9969,0.46188 -11.9961,1.38476 -3.8453,0.76907 -6.3847,1.30761 -7.6152,1.61524 v 100.82617 h -21.457 V 536.79883 c 5.0758,-1.84577 11.383,-3.53803 18.9199,-5.07617 7.5369,-1.69196 15.9963,-2.53711 25.3789,-2.53711 z m -373.7383,2.53711 h 21.457 v 62.75586 c 0,14.61231 2.3075,25.07253 6.9219,31.3789 4.6144,6.30637 12.382,9.45899 23.3028,9.45899 2.3072,0 4.6913,-0.0767 7.1523,-0.23047 2.461,-0.15382 4.7685,-0.30713 6.9219,-0.46094 2.1534,-0.30763 4.0756,-0.53759 5.7676,-0.69141 1.8457,-0.30762 3.1528,-0.6162 3.9218,-0.92382 V 531.72266 h 21.4571 v 116.51562 c -4.9221,1.23051 -11.4592,2.53755 -19.6114,3.92188 -7.9983,1.38432 -17.3028,2.07617 -27.916,2.07617 -9.2288,0 -16.9963,-1.30704 -23.3027,-3.92188 -6.3064,-2.76865 -11.3832,-6.61506 -15.2285,-11.53711 -3.8454,-4.92204 -6.6147,-10.68873 -8.3067,-17.30273 -1.6919,-6.76781 -2.5371,-14.22872 -2.5371,-22.38086 z m 602.0703,0 h 21.4571 v 119.97656 h -21.4571 z m -139.5683,64.37109 c -3.2301,0 -6.6913,0.23192 -10.3828,0.69336 -3.5378,0.46144 -6.8456,1.45991 -9.9219,2.99805 -2.9225,1.38432 -5.3832,3.38516 -7.3828,6 -1.9996,2.46102 -2.9981,5.76694 -2.9981,9.91992 0,7.69069 2.4608,13.07411 7.3828,16.15039 4.9221,2.92246 11.6125,4.38476 20.0723,4.38476 5.0759,0 9.5355,-0.0766 13.3809,-0.23046 3.9991,-0.30763 7.307,-0.76951 9.9218,-1.38477 v -35.76172 c -1.5381,-0.76907 -4.0755,-1.38426 -7.6132,-1.8457 -3.384,-0.61526 -7.537,-0.92383 -12.459,-0.92383 z m 241.9863,0 c -3.2301,0 -6.6913,0.23192 -10.3828,0.69336 -3.5377,0.46144 -6.8456,1.45991 -9.9219,2.99805 -2.9224,1.38432 -5.3832,3.38516 -7.3828,6 -1.9996,2.46102 -2.998,5.76694 -2.998,9.91992 0,7.69069 2.4607,13.07411 7.3828,16.15039 4.922,2.92246 11.6125,4.38476 20.0722,4.38476 5.0759,0 9.5355,-0.0766 13.3809,-0.23046 3.9992,-0.30763 7.307,-0.76951 9.9219,-1.38477 v -35.76172 c -1.5382,-0.76907 -4.0756,-1.38426 -7.6133,-1.8457 -3.3839,-0.61526 -7.537,-0.92383 -12.459,-0.92383 z m -299.7988,277.24609 c -7.6504,-0.0897 -11.9291,1.49198 -15.0293,5.55664 -3.791,4.97021 -2.4192,5.58555 11.3008,5.06446 6.1996,-0.23547 11.5131,-0.0365 11.8085,0.4414 0.928,1.50154 2.1968,0.97136 5.9903,-2.5039 2.0248,-1.85495 3.4843,-3.96282 3.2441,-4.6836 -0.5276,-1.58262 -10.4073,-3.794 -17.3144,-3.875 z"
       clip-path="none"
       style="fill:#00000c;fill-opacity:0.13636367" />
    <text
       id="text4643"
       y="1147.8474"
       x="3249.9307"
       style="font-style:normal;font-variant:normal;font-weight:normal;font-stretch:normal;font-size:159.31880188px;line-height:125%;font-family:Ubuntu;-inkscape-font-specification:Ubuntu;letter-spacing:0px;word-spacing:0px;fill:#000000;fill-opacity:1;stroke:none;stroke-width:0.99999994px;stroke-linecap:butt;stroke-linejoin:miter;stroke-opacity:1"
       xml:space="preserve"><tspan
         style="stroke-width:0.99999994px"
         y="1147.8474"
         x="3249.9307"
         id="tspan4641">&lt;- Hobart, Tasmania</tspan></text>
  </g>
  <g
     transform="translate(-58.323884,-58.284987)"
     style="display:inline"
     id="layer2">
    <path
       transform="translate(678.2945,-32.2369)"
       clip-path="url(#clipPath4611)"
       style="fill:#00a500;fill-opacity:1"
       d="m 2464.4391,1174.786 c -0.825,-0.31 -2.6945,-1.3995 -4.1544,-2.4211 -1.4599,-1.0216 -4.2173,-1.8574 -6.1275,-1.8574 -1.9103,0 -4.0368,-0.6791 -4.7256,-1.5091 -0.6888,-0.8299 -2.9259,-2.4496 -4.9713,-3.5991 -2.2135,-1.2441 -4.9705,-4.1751 -6.8111,-7.241 -3.3787,-5.628 -3.9987,-7.6532 -4.6326,-15.1331 -0.3271,-3.8588 -1.0035,-5.4457 -2.9999,-7.0375 -3.0863,-2.461 -3.314,-5.0157 -0.5776,-6.4802 4.2444,-2.2715 1.1412,-12.4185 -6.041,-19.7531 l -4.959,-5.0643 v -10.3688 c 0,-13.8287 2.7381,-18.0757 8.1588,-12.655 1.1873,1.1873 4.1815,2.5366 6.6536,2.9985 2.4722,0.4618 6.0833,2.0779 8.0247,3.5912 14.3576,11.1918 14.4251,11.23 19.8539,11.241 2.855,0.01 5.4349,-0.3842 5.733,-0.8665 0.8099,-1.3105 8.0981,-2.936 18.3929,-4.1023 5.3915,-0.6107 10.9685,-1.9141 13.5438,-3.1653 12.2632,-5.9579 17.9402,3.7466 12.0766,20.6446 -0.9865,2.843 -1.7786,8.2311 -1.8361,12.4898 -0.097,7.1516 -0.2141,7.5128 -2.6012,8 -3.7315,0.7615 -5.5308,2.1347 -7.8753,6.0102 -2.7144,4.4871 -2.6678,5.4155 0.4151,8.2741 2.4061,2.231 2.6217,5.7259 0.3532,5.7259 -0.4911,0 -0.893,1.7632 -0.893,3.9182 0,5.449 -0.8316,7.0818 -3.607,7.0818 -1.9696,0 -2.393,-0.5091 -2.393,-2.8776 0,-3.6395 -2.2122,-5.5369 -5.495,-4.713 -3.4467,0.8651 -12.0902,9.662 -14.0114,14.2603 -2.1233,5.0816 -4.2149,6.2165 -8.4936,4.6088 z m 15.6833,-1.9285 c -0.3758,-0.3758 -0.6833,-1.9958 -0.6833,-3.6 0,-3.4681 2.322,-3.3095 2.8347,0.1937 0.3538,2.4182 -0.9984,4.5593 -2.1514,3.4063 z m 30.7097,-95.9318 c 0.3339,-0.87 0.607,-1.77 0.607,-2 0,-0.6903 7.6138,-0.471 8.3247,0.2398 1.42,1.42 -1.7742,3.342 -5.5541,3.342 -3.2226,0 -3.8685,-0.3025 -3.3776,-1.5818 z m -1.393,-7.3415 c 0,-1.6592 -1.081,-4.208 -2.5,-5.8943 -3.1076,-3.6932 -3.3897,-8.1824 -0.5142,-8.1824 1.2446,0 2.9972,1.5864 4.6954,4.25 1.4902,2.3375 3.6283,5.2926 4.7513,6.5668 l 2.0417,2.3169 -2.4871,1.9109 c -3.7647,2.8926 -5.9871,2.5333 -5.9871,-0.9679 z m -110.1059,-14.3267 c -0.5221,-6.1586 1.3782,-11.75 3.9933,-11.75 2.7956,0 3.9305,7.1028 1.683,10.5329 -1.6846,2.571 -5.4923,3.3875 -5.6763,1.2171 z m 63.6059,-27.7749 c -3.3,-0.9976 -7.1797,-2.0692 -8.6215,-2.3813 -2.3224,-0.5027 -2.6773,-1.148 -3.1104,-5.6551 -0.5477,-5.7002 -3.3615,-10.2741 -6.6184,-10.7582 -2.027,-0.3013 -2.1497,0.084 -2.1497,6.7499 0,4.9894 -0.3678,7.0694 -1.25,7.069 -1.632,-8e-4 -12.75,-8.733 -12.75,-10.014 0,-0.5419 0.8519,-0.9854 1.893,-0.9854 4.1836,0 4.2155,-7.8606 0.058,-14.41533 -2.9578,-4.664 -3.1064,-4.7544 -5,-3.0408 -1.6255,1.4711 -1.9515,3.1023 -1.9515,9.76473 v 7.9987 l -4.1664,3.8463 -4.1663,3.8464 h -14.3994 c -15.4058,0 -17.0542,-0.4042 -21.0589,-5.1634 -3.5069,-4.1678 -7.9388,-5.6699 -19.6146,-6.648 -9.541,-0.7993 -11.0291,-1.2312 -20.6874,-6.0041 -9.2255,-4.55903 -11.372,-5.21763 -18.907,-5.80133 -9.9061,-0.7673 -13.2082,-2.1777 -18,-7.6881 -5.3934,-6.20235 -5.7625,-8.17865 -5.2109,-27.90155 0.5895,-21.0769 -0.1936,-25.1194 -5.8573,-30.23616 -2.0941,-1.8919 -5.7479,-3.97942 -8.1196,-4.63893 -6.0003,-1.66854 -9.1594,-5.25377 -8.3643,-9.49245 0.3374,-1.79851 0.2411,-3.50021 -0.2142,-3.78155 -0.4552,-0.28134 -4.1815,1.46335 -8.2807,3.87709 -6.7698,3.98636 -8.0699,4.39273 -14.1839,4.43354 -6.4041,0.0428 -6.7622,-0.0794 -7.3736,-2.51546 -1.2714,-5.06563 0.2359,-10.37951 3.9737,-14.00969 4.4926,-4.36308 4.9651,-7.1049 3.7706,-21.87982 -1.077,-13.32204 -2.0777,-15.17556 -7.6085,-14.09343 -4.1754,0.81692 -4.9821,1.96883 -4.7658,6.80535 0.2841,6.35193 -1.6717,15.79752 -3.9266,18.96429 -3.0621,4.3003 -6.7814,5.69857 -15.9609,6.0004 -12.2251,0.40199 -11.9987,-0.7786 2.9056,-15.15401 17.1161,-16.50869 19.926,-22.87781 20.5466,-46.57269 0.5915,-22.58421 -0.7945,-26.43733 -5.8916,-16.37869 -5.015,9.89654 -22.937,31.90041 -32.8882,40.37869 -3.8733,3.3 -8.9567,7.97498 -11.2964,10.38884 -4.211,4.34452 -4.254,4.46208 -4.254,11.64301 0,5.69237 -0.3405,7.38486 -1.5818,7.86116 -3.3594,1.28913 -5.4443,0.43578 -10.7233,-4.38893 -6.3764,-5.82767 -9.2701,-11.93015 -13.2249,-27.88944 -4.4785,-18.07312 -10.4012,-26.20514 -20.4774,-28.11605 -3.0017,-0.56925 -6.0863,-1.66372 -6.8547,-2.43216 -2.3291,-2.3291 -0.6044,-5.93868 4.0805,-8.53994 4.9256,-2.73488 5.7452,-3.68965 5.7663,-6.71747 0.02,-2.86321 -1.1378,-3.48143 -7.8771,-4.20607 l -5.6076,-0.60295 -0.3131,-4.5 c -0.1722,-2.475 -0.7481,-4.9409 -1.2798,-5.47979 -0.5316,-0.53888 -3.7657,-1.25743 -7.1869,-1.59679 -3.4211,-0.33935 -8.9022,-1.36095 -12.1803,-2.27021 -4.2033,-1.16592 -9.985,-1.65321 -19.6151,-1.65321 -12.3002,0 -13.9165,-0.20563 -16.2899,-2.07258 -2.1979,-1.72885 -2.6349,-2.87504 -2.6349,-6.91111 0,-4.1185 -0.4343,-5.20397 -2.9185,-7.29432 -1.6052,-1.35069 -5.88,-3.25741 -9.4994,-4.23716 -15.2797,-4.13601 -36.0005,0.94521 -70.7012,17.33757 -16.0488,7.58134 -22.3495,9.26167 -36.8809,9.83582 -6.875,0.27164 -13.625,0.93838 -15,1.48165 -1.375,0.54327 -3.85,2.70877 -5.5,4.81222 -3.1951,4.07324 -6.1659,5.04338 -25,8.16394 -14.0675,2.3308 -48.6849,17.90587 -54.7887,24.65057 -0.8765,0.96849 -4.2207,6.47633 -7.4316,12.23964 l -5.838,10.47876 -9.4709,2.88368 c -9.3403,2.84394 -9.8497,2.88701 -36.9708,3.12561 -15.125,0.13307 -29.2723,0.59228 -31.4385,1.02048 -4.2663,0.84335 -11.6166,3.66096 -23.8538,9.14406 -8.495,3.80635 -25.1005,16.34472 -27.8777,21.0498 -3.8462,6.51592 -10.1217,13.25419 -14.1685,15.21322 -3.9104,1.89297 -6.0847,2.07815 -24.4009,2.07815 -24.7264,0 -28.5061,-0.73808 -37.7606,-7.37377 -12.7628,-9.1512 -13.6352,-9.62623 -17.6793,-9.62623 -4.3756,0 -11.255,-3.12865 -13.9903,-6.36261 -1.4838,-1.75433 -1.765,-3.66073 -1.5691,-10.63739 l 0.2387,-8.5 6.3435,-3.18672 c 3.4889,-1.75269 6.9621,-4.00269 7.7182,-5 1.8949,-2.49936 1.8509,-16.96754 -0.062,-20.31328 -1.0723,-1.87587 -1.438,-6.54059 -1.4645,-18.6849 -0.019,-8.9017 -0.5111,-17.43597 -1.0925,-18.96505 -0.5814,-1.52909 -6.1829,-7.97088 -12.4478,-14.3151 -10.7882,-10.92474 -14.4952,-16.28637 -14.4952,-20.96532 0,-5.20829 -4.3547,-13.18749 -12.0304,-22.04326 -4.3833,-5.05712 -8.0064,-9.94438 -8.0515,-10.86057 -0.045,-0.91619 -0.017,-4.15826 0.062,-7.2046 0.1608,-6.18312 -0.2838,-6.79919 -8.1425,-11.28274 -11.7007,-6.67559 -14.8377,-11.67318 -14.8377,-23.63862 0,-5.76223 -0.3541,-8.04142 -1.25,-8.04542 -3.1584,-0.0141 -8.9498,-2.2925 -10.7565,-4.23178 -1.433,-1.53819 -2.0034,-3.56274 -2.0289,-7.2012 -0.045,-6.4824 -1.2102,-8.46455 -8.3984,-14.29102 -3.2369,-2.62373 -8.9843,-8.20733 -12.7721,-12.40799 -7.1485,-7.92785 -8.8261,-12.08409 -5.6988,-14.11895 2.0044,-1.30424 6.2566,-0.28675 8.3918,2.00802 11.8659,12.75304 18.6076,17.33858 22.4599,15.27687 1.8344,-0.98175 2.053,-2.04566 2.053,-9.99213 0,-6.94247 -0.3631,-9.25647 -1.6551,-10.54856 -2.0492,-2.04916 -5.7092,-3.48768 -8.8738,-3.48768 -2.3459,0 -2.4049,-0.21191 -2.6849,-9.64388 -0.2192,-7.38621 -0.6373,-9.81001 -1.7862,-10.35356 -8.1924,-3.876 -9.6298,-4.93252 -12.1819,-8.95373 -1.5537,-2.44815 -3.723,-6.85142 -4.8206,-9.78506 l -1.9956,-5.33388 2.6227,-5.17573 c 3.3295,-6.57038 4.4674,-19.07026 3.7102,-40.75416 -0.4862,-13.9241 0.5701,-30.23825 2.0541,-31.72217 1.2564,-1.25643 3.4508,2.09016 5.0068,7.63558 1.6761,5.97366 3.6983,8.76457 5.5302,7.63242 0.5574,-0.34449 1.9786,-3.87073 3.1583,-7.83609 3.3023,-11.10056 7.5226,-18.64251 13.3695,-23.89216 2.8684,-2.57533 8.4884,-8.53781 12.4889,-13.24996 10.3774,-12.22329 21.4161,-20.55849 31.529,-23.80718 1.6656,-0.53508 7.5284,-1.30583 13.0284,-1.71277 11.3497,-0.83976 14.9995,-2.30904 25.2475,-10.16377 3.5047,-2.68614 6.9077,-4.88426 7.5623,-4.88469 0.6546,-4.3e-4 3.8902,-1.29573 7.1902,-2.87844 5.9289,-2.84353 9.5328,-6.08458 14.8428,-13.34847 4.8443,-6.62675 10.0413,-8.8342 23.4133,-9.94475 30.8582,-2.56279 43.9043,-9.17224 61.5573,-31.1862 11.7726,-14.68092 14.2878,-22.32343 15.0204,-45.64135 0.4003,-12.73942 0.7782,-15.30307 3.1128,-21.11404 3.0175,-7.51068 11.1332,-18.24081 14.1267,-18.67744 1.3979,-0.2039 3.7332,1.67237 7.7727,6.24498 3.1759,3.59505 7.3233,7.71794 9.2165,9.16197 2.9728,2.26746 3.6663,2.43952 5.0855,1.26173 1.4425,-1.19716 1.5662,-3.14394 1.0125,-15.93538 -0.4602,-10.63387 -0.3104,-14.89186 0.5544,-15.75671 0.7667,-0.76669 4.9858,-1.18511 11.95,-1.18511 12.8424,0 13.0772,-0.20945 12.6286,-11.26553 l -0.2935,-7.23447 -3.3073,-0.31763 c -5.0044,-0.48062 -4.9318,-2.56646 0.2916,-8.37611 2.5793,-2.86884 5.7749,-7.35756 7.1012,-9.97493 l 2.4115,-4.75887 9.7515,-0.28623 9.7515,-0.28623 0.298,-7.45532 c 0.382,-9.55919 1.0931,-10.41368 7.9525,-9.55665 6.7358,0.84158 8.2495,-0.27367 8.2495,-6.07808 0,-4.07638 0.3248,-4.58811 5.25,-8.27271 2.8875,-2.16015 10.425,-6.51802 16.75,-9.68416 9.9857,-4.99858 12.4398,-5.81882 18.6365,-6.22906 6.4344,-0.42598 7.6498,-0.19303 12.3554,2.36806 6.3639,3.46366 12.2121,9.91115 16.2435,17.90792 7.2595,14.39993 11.3206,17.44519 24.2646,18.1951 11.3866,0.65968 30.4642,-1.02802 31.5823,-2.79394 2.8441,-4.49214 -0.3869,-13.6121 -5.1608,-14.56688 -3.8794,-0.77587 -5.1164,-3.2457 -4.2825,-8.55066 1.0048,-6.39242 3.5077,-11.55069 9.2223,-19.00655 2.8263,-3.6875 5.1387,-7.12273 5.1387,-7.63382 0,-1.43321 2.6879,-2.14325 8.1132,-2.14325 5.8176,0 6.5838,-1.08759 4.4182,-6.27075 -3.013,-7.211 -1.3714,-16.84793 3.6313,-21.31748 6.9675,-6.22502 15.0947,-8.46072 39.8373,-10.95882 8.525,-0.86072 17.1979,-1.94424 19.2731,-2.40782 7.3542,-1.64291 13.7269,-8.85973 13.7269,-15.54513 0,-6.3088 -6.6341,-14.68478 -11.6592,-14.72041 -7.8746,-0.0558 -9.5876,-2.623709 -4.8862,-7.325039 4.4206,-4.4206 7.0932,-3.5542 23.7343,7.693989 2.9688,2.00669 5.9959,4.36919 6.7269,5.25 2.9417,3.54453 5.5577,0.67783 4.9209,-5.3926 -0.4959,-4.727439 1.3502,-3.937849 4.6621,1.99406 2.7671,4.95606 3.4629,5.55303 7.036,6.03617 2.1809,0.2949 7.1152,2.06859 10.9652,3.94153 6.8135,3.31462 7.3911,3.41598 21.6776,3.80409 l 14.6775,0.39874 1.5493,3.87207 c 2.1337,5.33259 5.3014,6.65995 17.9091,7.50449 9.3478,0.62617 10.9664,0.49965 12.6075,-0.98556 1.2506,-1.1318 3.1466,-1.59778 5.6466,-1.38774 3.4345,0.28856 3.8594,0.65903 4.8576,4.23606 1.892,6.77939 9.7816,7.56379 12.7825,1.27085 2.2963,-4.81548 6.7415,-6.49658 12.1713,-4.60298 l 4.121,1.43719 -0.1679,9.56783 c -0.1838,10.46873 -1.7393,20.71895 -3.3935,22.36097 -0.644,0.63928 -5.2909,0.92925 -11.9454,0.74541 -13.8952,-0.38386 -13.8755,-0.40117 -16.9154,14.85644 -1.2499,6.27319 -3.1924,13.2145 -4.3168,15.42512 -2.9716,5.84228 -9.9173,14.5755 -15.7958,19.86073 -5.5887,5.02476 -5.7615,6.82435 -0.5742,5.98257 6.8533,-1.11214 21.7583,3.75119 33.609,10.96625 3.575,2.17655 12.6541,7.95606 20.1758,12.84334 8.9238,5.7983 17.4819,10.4156 24.6293,13.2881 14.87,5.97614 16.3038,6.79248 24.5295,13.96605 9.1455,7.97563 18.5737,14.91744 22.4303,16.51489 1.9762,0.81856 3.2071,2.17069 3.5714,3.92322 0.3057,1.47079 2.0426,5.1029 3.8598,8.07136 2.4521,4.00565 4.5931,6.06825 8.3039,8 4.8558,2.52771 5.5008,2.59958 22.3558,2.49071 12.1988,-0.0788 17.5735,-0.46446 18.0887,-1.29799 0.4031,-0.65224 1.7141,-5.86231 2.9134,-11.57793 1.3684,-6.52143 4.1905,-15.05278 7.5769,-22.90547 2.9679,-6.88238 6.0933,-14.91104 6.9452,-17.84146 2.0602,-7.08699 3.6017,-21.07145 3.6118,-32.76625 0,-5.22566 1.353,-18.95066 2.9965,-30.5 1.6436,-11.54934 2.9936,-23.61588 3,-26.81454 0.014,-7.00718 1.0208,-9.14316 4.9554,-10.51479 3.3574,-1.17039 3.2739,-0.90882 5.3207,-16.66947 1.0723,-8.25724 2.4391,-13.49342 5.4815,-21 10.7855,-26.610579 10.6973,-26.455939 15.0998,-26.484679 7.264,-0.0474 12.6769,9.741939 14.377,26.001199 l 1.1484,10.98348 h 6.4311 c 6.2184,0 6.407,0.0744 5.7027,2.25 -0.4007,1.2375 -0.9495,5.4568 -1.2197,9.37622 -0.4772,6.92262 -0.32,7.53769 5.5035,21.52815 7.962,19.12797 8.2003,20.07894 9.1939,36.68258 0.4719,7.88532 1.1574,14.63532 1.5233,15 0.3659,0.36468 3.4392,0.50566 6.8297,0.31328 3.3904,-0.19237 9.479,-0.41737 13.5301,-0.5 l 7.3658,-0.15023 3.4248,3.96348 c 1.8836,2.17992 4.6885,6.22992 6.2332,9 1.5446,2.77009 4.035,7.16531 5.5341,9.76716 2.3985,4.16274 2.836,6.32358 3.6438,18 1.1198,16.18583 2.6405,26.82591 4.4544,31.16731 1.5291,3.65963 8.6967,10.60205 10.9459,10.60205 0.8041,0 1.9046,0.82713 2.4456,1.83807 1.5644,2.92301 3.0867,17.62669 3.0867,29.81334 0,15.0147 1.5497,25.70165 4.6674,32.18707 5.7012,11.85979 19.5434,24.86965 27.5424,25.88633 5.3328,0.67781 6.7902,1.78855 6.7902,5.17513 0,4.21604 2.409,6.63556 12.5475,12.60239 11.7341,6.9059 16.4537,12.54976 22.4234,26.81467 2.3438,5.60065 6.2629,13.94438 8.7091,18.54161 8.8978,16.72167 16.1974,36.87117 16.2844,44.95041 0.045,4.19446 1.7419,3.27339 2.6231,-1.42394 0.3658,-1.94962 1.2481,-3.76848 1.9606,-4.04192 2.8851,-1.1071 5.2014,1.80603 8.5271,10.72395 5.0215,13.46566 7.9351,13.3885 7.7647,-0.20562 -0.1094,-8.72516 0.322,-9.86149 3.7439,-9.86149 3.4659,0 4.4162,3.22636 4.4162,14.99274 0,19.81293 3.3079,34.1034 9.7641,42.18196 2.0547,2.57109 5.8114,7.29609 8.348,10.5 2.5367,3.20392 8.4749,11.9003 13.1961,19.3253 9.84,15.47538 16.6636,23.67245 21.3285,25.62155 5.0008,2.08949 7.3038,0.22159 7.3496,-5.96126 0.022,-2.9828 4.0555,-5.59011 8.7047,-5.62702 2.305,-0.0183 4.4809,0.43579 4.8352,1.00909 0.3543,0.5733 -0.068,3.1608 -0.9391,5.75 -0.8709,2.5892 -2.0401,6.57754 -2.5983,8.86298 -1.4801,6.05997 -3.9191,8.56602 -9.0085,9.25617 -3.754,0.50907 -4.4559,0.99337 -5.2007,3.58849 -0.4736,1.65 -0.5731,6.76376 -0.2211,11.36391 0.352,4.60016 0.6001,15.17516 0.5513,23.5 -0.049,8.32485 0.4195,21.73147 1.0406,29.79249 1.5653,20.31329 0.1569,32.77638 -5.7635,51.00078 -2.4402,7.51146 -6.4599,17.98687 -8.9328,23.27871 -5.2416,11.21662 -6.7341,17.15203 -8.9427,35.56411 -3.2829,27.36753 -4.3146,29.12056 -26.0299,44.23161 -15.5378,10.81233 -21.0681,18.08831 -27.3389,35.96878 -4.2035,11.98567 -6.0163,15.26431 -15.5427,28.11122 -4.5631,6.15362 -9.7279,14.20528 -11.4774,17.89259 -2.4689,5.20354 -5.5124,9.03288 -13.5969,17.10756 -5.7288,5.72185 -10.6408,11.47996 -10.9155,12.7958 -0.2747,1.31584 -0.7157,7.56744 -0.9801,13.89244 -0.6773,16.20631 -4.1824,27.48637 -10.2907,33.11747 -4.9002,4.5173 -11.1101,5.88243 -26.7674,5.88393 -21.7464,0 -33.3796,2.5169 -46.6906,10.0931 -4.7402,2.6981 -9.7772,4.9055 -11.1933,4.9055 -3.106,0 -5.688,3.3084 -5.688,7.2882 0,4.0857 -1.7145,6.7288 -4.2852,6.6063 -1.2181,-0.058 -4.9148,-0.9218 -8.2148,-1.9194 z m -230.919,-110.84408 c -0.2954,-0.47794 -5.6094,-0.67633 -11.809,-0.44086 -13.72,0.52109 -15.0916,-0.0935 -11.3006,-5.06371 3.1002,-4.06466 7.3782,-5.64637 15.0286,-5.55667 6.9071,0.081 16.7872,2.29181 17.3148,3.87443 0.2402,0.72078 -1.2198,2.8282 -3.2446,4.68315 -3.7935,3.47526 -5.0612,4.0052 -5.9892,2.50366 z m 65.5957,-643.88102 c 0.4009,-2.17009 10.1903,-7.25 13.9713,-7.25 4.4159,0 2.5616,2.1842 -4.9178,5.79273 -7.6044,3.66888 -9.519,3.97706 -9.0535,1.45727 z m -81.6744,-77.80187 c -5.5782,-2.95235 -6.5023,-4.38015 -6.5023,-10.04735 0,-4.0925 0.5256,-5.90023 2.3227,-7.98957 2.0025,-2.32793 2.816,-2.60778 5.8996,-2.0293 4.8636,0.91243 6.5959,3.05655 4.4157,5.46559 -2.2205,2.45367 -2.0601,5.46048 0.4106,7.69641 2.9974,2.71262 2.3409,7.86096 -1.0486,8.22346 -1.375,0.14705 -3.849,-0.44661 -5.4977,-1.31924 z m -16.1664,-19.01535 c -0.7217,-1.88073 1.0479,-3.93166 2.577,-2.98663 1.6483,1.01871 1.3034,4.55385 -0.4442,4.55385 -0.8423,0 -1.8021,-0.70525 -2.1328,-1.56722 z m -188.6896,-64.40686 c -2.0712,-2.18574 -4.9359,-4.54824 -6.3661,-5.25 -1.4302,-0.70175 -3.5079,-2.50245 -4.6173,-4.00154 -1.938,-2.618859 -1.9472,-2.802689 -0.2362,-4.693319 2.6045,-2.87791 6.7213,-3.41157 12.676,-1.6432 7.5258,2.23492 16.5995,2.04109 20.6715,-0.44159 3.934,-2.39856 7.7864,-2.58382 8.6188,-0.41448 1.1221,2.92407 0.6201,8.954549 -0.9296,11.167019 -0.8451,1.2066 -3.3294,2.67657 -5.5205,3.26658 -2.1912,0.59002 -5.6125,2.17793 -7.603,3.52869 -2.5607,1.73776 -4.98,2.45592 -8.2734,2.45592 -4.1266,0 -5.0813,-0.45059 -8.4202,-3.97408 z"
       id="path4593" />
  </g>
</svg>
